<?xml version="1.0" encoding="UTF-8" standalone="no"?><!DOCTYPE svg PUBLIC "-//W3C//DTD SVG 1.1//EN" "http://www.w3.org/Graphics/SVG/1.1/DTD/svg11.dtd"><svg width="30%" height="30%" viewBox="0 0 322 250" version="1.1" xmlns="http://www.w3.org/2000/svg" xmlns:xlink="http://www.w3.org/1999/xlink" xml:space="preserve" xmlns:serif="http://www.serif.com/" style="fill-rule:evenodd;clip-rule:evenodd;stroke-linejoin:round;stroke-miterlimit:2;"><path d="M78.083,0l0,249.022l-78.083,0l0,-249.022l78.083,0Zm9.855,179.38c28.13,-81.202 128.263,-4.807 138.58,-14.42c10.317,-9.614 15.476,-23.332 15.476,-41.152c-0,-17.821 -5.159,-31.538 -15.476,-41.152c-10.317,-9.614 -110.343,59.668 -138.58,-14.421l-0,-68.235l103.759,-0c26.028,-0 48.831,5.276 68.411,15.828c19.579,10.551 34.645,25.207 45.197,43.965c10.551,18.759 15.827,40.097 15.827,64.015c0,23.683 -5.276,45.021 -15.827,64.014c-10.552,18.993 -25.618,33.941 -45.197,44.845c-19.58,10.903 -42.383,16.355 -68.411,16.355l-103.759,0l-0,-69.642Z" style="fill-rule:nonzero;"/></svg>