<?xml version="1.0" encoding="UTF-8" standalone="no"?><!DOCTYPE svg PUBLIC "-//W3C//DTD SVG 1.1//EN" "http://www.w3.org/Graphics/SVG/1.1/DTD/svg11.dtd"><svg width="100%" height="100%" viewBox="0 0 124 86" version="1.1" xmlns="http://www.w3.org/2000/svg" xmlns:xlink="http://www.w3.org/1999/xlink" xml:space="preserve" xmlns:serif="http://www.serif.com/" style="fill-rule:evenodd;clip-rule:evenodd;stroke-linejoin:round;stroke-miterlimit:2;"><path d="M30.066,0l-0,85.719l-30.066,0l-0,-85.719l30.066,0Zm3.794,61.747c10.831,-27.952 49.387,-1.655 53.36,-4.964c3.972,-3.309 5.958,-8.031 5.958,-14.166c0,-6.134 -1.986,-10.856 -5.958,-14.165c-3.973,-3.309 -42.488,20.539 -53.36,-4.964l-0,-23.488l39.952,-0c10.022,-0 18.802,1.816 26.341,5.448c7.539,3.632 13.34,8.677 17.403,15.134c4.063,6.457 6.094,13.803 6.094,22.035c0,8.153 -2.031,15.498 -6.094,22.036c-4.063,6.538 -9.864,11.683 -17.403,15.436c-7.539,3.754 -16.319,5.63 -26.341,5.63l-39.952,0l-0,-23.972Z" style="fill:#fff;fill-rule:nonzero;"/></svg>