<?xml version="1.0" encoding="UTF-8" standalone="no"?><!DOCTYPE svg PUBLIC "-//W3C//DTD SVG 1.1//EN" "http://www.w3.org/Graphics/SVG/1.1/DTD/svg11.dtd"><svg width="100%" height="100%" viewBox="0 0 677 143" version="1.1" xmlns="http://www.w3.org/2000/svg" xmlns:xlink="http://www.w3.org/1999/xlink" xml:space="preserve" xmlns:serif="http://www.serif.com/" style="fill-rule:evenodd;clip-rule:evenodd;stroke-linejoin:round;stroke-miterlimit:2;"><g><path d="M106.304,25.937c3.668,6.812 5.568,14.279 5.699,22.401c-0.131,7.991 -2.031,15.392 -5.699,22.204c-3.537,6.419 -9.3,11.855 -17.291,16.309c-7.074,4.061 -14.803,6.092 -23.187,6.092l-46.766,-0l0,37.727l5.698,9.235l0,0.393l-24.758,0l-0,-0.393l5.895,-9.235l-0,-117.308l-5.895,-9.039l-0,-0.59l65.826,0c8.384,0 16.113,2.031 23.187,6.092c7.991,4.454 13.754,9.825 17.291,16.112Zm-7.467,23.58l0,-2.358c-0.131,-6.943 -1.702,-13.165 -4.715,-18.667c-3.144,-5.895 -7.795,-10.545 -13.952,-13.951c-3.93,-2.227 -8.318,-3.734 -13.165,-4.52c-1.179,-0.262 -2.423,-0.458 -3.733,-0.589l0.786,-0c-0,-0 -0.59,-0.066 -1.769,-0.197c-1.179,-0.131 -2.03,-0.196 -2.554,-0.196l-40.675,-0l0,31.439l-0.196,0l-0,23.776l0.196,0l0,23.187l38.906,-0c3.144,-0 6.157,-0.262 9.039,-0.786c4.847,-0.786 9.235,-2.293 13.165,-4.52c6.157,-3.537 10.808,-8.187 13.952,-13.951c3.013,-5.633 4.584,-11.855 4.715,-18.667Z" style="fill:#fff;fill-rule:nonzero;"/><path d="M207.303,93.729l5.699,9.038l-0,0.393l-24.366,0l0,-0.393l4.913,-7.663l-3.341,-7.86l-1.572,-3.733l-55.608,-0l-5.109,11.397l5.305,7.859l0,0.393l-17.095,0l0,-0.393l7.074,-10.021l-0,0.197l41.264,-92.943l3.341,0l39.495,93.729Zm-71.917,-15.72l50.892,-0l-24.758,-59.342l-26.134,59.342Zm29.278,35.173c3.144,5.764 7.663,10.283 13.558,13.558c-5.895,3.144 -10.414,7.663 -13.558,13.558c-3.275,-5.895 -7.86,-10.414 -13.755,-13.558c5.895,-3.275 10.48,-7.794 13.755,-13.558Z" style="fill:#fff;fill-rule:nonzero;"/><path d="M306.73,96.283c2.751,1.965 5.83,5.436 9.236,10.414c3.405,4.978 6.451,9.727 9.137,14.246c2.685,4.52 5.796,8.548 9.333,12.085c3.537,3.537 6.878,5.305 10.021,5.305l0,1.965l-7.859,0c-10.48,0 -18.275,-3.471 -23.383,-10.414c-1.048,-1.441 -2.391,-3.504 -4.029,-6.19c-1.637,-2.685 -3.406,-5.567 -5.305,-8.646c-1.899,-3.078 -3.635,-5.796 -5.207,-8.154c-3.013,-4.323 -6.943,-7.729 -11.79,-10.218c-4.847,-2.489 -9.956,-3.733 -15.327,-3.733l-26.33,-0l-0,11.593l0.196,26.134l5.699,9.235l-0,0.393l-24.955,0l-0,-0.393l5.895,-9.039l-0,-117.504l-5.895,-9.039l-0,-0.59l68.38,0c7.205,0 13.886,1.769 20.043,5.306c7.729,4.585 13.427,10.218 17.095,16.898c3.668,6.812 5.568,14.279 5.699,22.401c-0.131,7.991 -2.031,15.392 -5.699,22.204c-3.537,6.419 -8.908,11.855 -16.112,16.309c-5.502,3.406 -11.397,5.371 -17.685,5.895c2.227,-0.262 5.174,0.917 8.842,3.537Zm-13.558,-9.628c4.847,-0.786 9.235,-2.293 13.165,-4.52c6.157,-3.537 10.808,-8.187 13.951,-13.951c2.489,-4.716 3.865,-11.135 4.127,-19.257l-0,-2.357c-0.262,-7.336 -1.638,-13.362 -4.127,-18.078c-3.143,-5.895 -7.794,-10.545 -13.951,-13.951c-3.93,-2.227 -8.318,-3.734 -13.165,-4.52c-1.179,-0.262 -2.423,-0.458 -3.733,-0.589l0.786,-0c-0.262,-0 -0.623,-0.033 -1.081,-0.098c-0.459,-0.066 -0.753,-0.099 -0.884,-0.099c-1.179,-0.131 -1.965,-0.196 -2.358,-0.196l-40.675,-0l-0,78.402l38.71,-0c1.572,-0 3.078,-0.066 4.519,-0.197c1.441,-0.131 2.817,-0.327 4.127,-0.589l0.589,-0Z" style="fill:#fff;fill-rule:nonzero;"/><path d="M365.679,13.558l-5.895,-9.235l0,-0.393l24.759,-0l-0,0.393l-5.699,9.235l0,78.795l5.699,9.039l-0,0.589l-24.759,0l0,-0.589l5.895,-9.039l0,-78.795Zm6.484,99.624c3.275,5.764 7.86,10.283 13.755,13.558c-5.895,3.144 -10.48,7.663 -13.755,13.558c-3.144,-5.895 -7.663,-10.414 -13.558,-13.558c5.895,-3.275 10.414,-7.794 13.558,-13.558Z" style="fill:#fff;fill-rule:nonzero;"/><path d="M456.657,65.04c4.978,1.703 9.137,3.21 12.477,4.52c3.341,1.31 6.878,2.849 10.611,4.617c3.733,1.769 6.779,3.603 9.137,5.502c2.358,1.9 4.552,4.094 6.583,6.583c2.03,2.489 3.537,5.305 4.519,8.449c0.982,3.144 1.539,6.681 1.67,10.611c0.262,12.183 -3.471,21.352 -11.2,27.509c-7.729,6.157 -18.143,9.236 -31.243,9.236c-14.017,-0 -25.806,-3.013 -35.369,-9.039c-2.62,-1.572 -5.502,-2.391 -8.646,-2.456c-3.144,-0.066 -6.026,0.687 -8.646,2.259l-0.589,0l-0,-24.955l0.786,0l0.196,0.197c5.895,7.991 12.183,14.344 18.864,19.06c9.694,6.55 20.632,9.825 32.815,9.825c9.955,-0 18.012,-2.62 24.169,-7.86c6.156,-5.24 8.842,-12.052 8.056,-20.436c-0.655,-6.943 -3.602,-12.444 -8.842,-16.505c-5.24,-4.061 -15.393,-8.777 -30.457,-14.148c-3.93,-1.31 -7.074,-2.424 -9.432,-3.341c-2.358,-0.917 -5.305,-2.194 -8.842,-3.831c-3.537,-1.638 -6.386,-3.144 -8.548,-4.52c-2.161,-1.375 -4.519,-3.111 -7.074,-5.207c-2.554,-2.096 -4.519,-4.257 -5.895,-6.484c-1.375,-2.227 -2.554,-4.782 -3.537,-7.663c-0.982,-2.882 -1.473,-6.026 -1.473,-9.432c-0,-4.061 0.72,-7.958 2.161,-11.692c1.441,-3.733 3.701,-7.27 6.779,-10.611c3.079,-3.34 7.402,-6.025 12.969,-8.056c5.567,-2.03 12.084,-3.046 19.551,-3.046c5.764,0 12.576,1.179 20.436,3.537l0.196,0c6.026,1.834 11.725,1.441 17.096,-1.179l2.75,-1.375l0.59,-0l-0,23.776l-0.59,-0l-0.589,-0.59c-1.834,-2.096 -3.733,-3.929 -5.698,-5.501c-3.668,-3.275 -7.533,-5.961 -11.594,-8.057c-0.655,-0.262 -1.113,-0.458 -1.375,-0.589c-6.812,-3.275 -14.148,-4.913 -22.008,-4.913c-8.252,0 -15.359,2.26 -21.319,6.779c-5.961,4.52 -8.941,10.644 -8.941,18.373c-0,2.227 0.262,4.257 0.786,6.091c0.524,1.834 1.408,3.57 2.653,5.207c1.244,1.638 2.423,3.079 3.537,4.323c1.113,1.245 2.849,2.522 5.207,3.832c2.358,1.31 4.29,2.358 5.796,3.144c1.507,0.786 3.799,1.768 6.878,2.947c3.078,1.179 5.403,2.031 6.975,2.555c1.572,0.524 4.127,1.375 7.664,2.554Z" style="fill:#fff;fill-rule:nonzero;"/><path d="M545.473,131.063l5.698,9.039l0,0.393l-24.758,-0l-0,-0.393l5.895,-9.039l-0,-110.627c-1.179,-1.834 -2.882,-2.751 -5.109,-2.751l-6.288,-0c4.454,-3.144 8.515,-6.288 12.183,-9.432c0.655,-0.393 1.244,-0.852 1.768,-1.376c0.524,-0.524 1.146,-1.08 1.867,-1.67c0.72,-0.589 1.277,-1.081 1.67,-1.474l7.074,0l-0,127.33Z" style="fill:#fff;fill-rule:nonzero;"/><path d="M662.781,66.219c9.301,7.991 13.951,18.078 13.951,30.261c0,12.575 -4.879,23.055 -14.639,31.439c-9.759,8.384 -21.713,12.576 -35.86,12.576c-17.554,-0 -30.916,-4.978 -40.085,-14.934c-9.432,-10.349 -14.148,-25.676 -14.148,-45.98c-0,-13.231 2.554,-25.61 7.663,-37.138c5.109,-11.528 12.412,-20.828 21.909,-27.902c9.498,-7.074 20.076,-10.611 31.735,-10.611c9.431,-0 17.488,2.161 24.169,6.484c2.619,1.703 4.781,3.668 6.484,5.895l-1.965,6.681c-1.834,-2.882 -4.094,-5.338 -6.779,-7.369c-2.686,-2.03 -5.666,-3.536 -8.941,-4.519c-3.275,-0.982 -6.812,-1.539 -10.611,-1.67c-13.623,-0.262 -24.693,4.585 -33.207,14.541c-4.978,5.763 -9.105,12.968 -12.38,21.614c-3.275,8.646 -5.108,17.947 -5.501,27.902c1.703,-3.667 6.222,-7.728 13.558,-12.182c7.336,-4.454 15.064,-6.878 23.186,-7.271c17.292,-0.786 31.112,3.275 41.461,12.183Zm-36.941,68.184c11.92,0 21.221,-3.373 27.902,-10.119c6.681,-6.747 10.021,-15.818 10.021,-27.215c0,-10.873 -3.406,-19.584 -10.217,-26.134c-7.074,-6.812 -16.31,-10.218 -27.706,-10.218c-12.183,0 -22.008,3.406 -29.475,10.218c-7.205,6.681 -10.807,15.458 -10.807,26.331c0,11.527 3.57,20.599 10.709,27.214c7.139,6.616 16.997,9.923 29.573,9.923Z" style="fill:#fff;fill-rule:nonzero;"/></g></svg>