<?xml version="1.0" encoding="UTF-8" standalone="no"?><!DOCTYPE svg PUBLIC "-//W3C//DTD SVG 1.1//EN" "http://www.w3.org/Graphics/SVG/1.1/DTD/svg11.dtd"><svg width="100%" height="100%" viewBox="0 0 56 35" version="1.1" xmlns="http://www.w3.org/2000/svg" xmlns:xlink="http://www.w3.org/1999/xlink" xml:space="preserve" xmlns:serif="http://www.serif.com/" style="fill-rule:evenodd;clip-rule:evenodd;stroke-linejoin:round;stroke-miterlimit:2;"><path d="M13.523,0l-0,34.807l-13.523,-0l0,-34.807l13.523,0Zm1.707,25.073c4.871,-11.35 22.213,-0.672 24,-2.016c1.787,-1.344 2.68,-3.261 2.68,-5.752c0,-2.491 -0.893,-4.408 -2.68,-5.752c-1.787,-1.344 -19.11,8.34 -24,-2.016l-0,-9.537l17.969,-0c4.508,-0 8.457,0.737 11.848,2.212c3.391,1.475 6,3.524 7.828,6.146c1.827,2.622 2.741,5.604 2.741,8.947c-0,3.31 -0.914,6.293 -2.741,8.948c-1.828,2.654 -4.437,4.744 -7.828,6.268c-3.391,1.524 -7.34,2.286 -11.848,2.286l-17.969,-0l-0,-9.734Z" style="fill-rule:nonzero;"/></svg>