<?xml version="1.0" encoding="UTF-8" standalone="no"?><!DOCTYPE svg PUBLIC "-//W3C//DTD SVG 1.1//EN" "http://www.w3.org/Graphics/SVG/1.1/DTD/svg11.dtd"><svg width="100%" height="100%" viewBox="0 0 547 270" version="1.1" xmlns="http://www.w3.org/2000/svg" xmlns:xlink="http://www.w3.org/1999/xlink" xml:space="preserve" xmlns:serif="http://www.serif.com/" style="fill-rule:evenodd;clip-rule:evenodd;stroke-linejoin:round;stroke-miterlimit:2;"><path d="M204.6,137.267l68.863,-132.043l68.862,132.043c0,0 -68.862,132.043 -68.862,132.043c-0,0 -68.863,-132.043 -68.863,-132.043Zm275.45,0c-0,0 -68.862,132.043 -68.862,132.043c-0,0 -68.863,-132.043 -68.863,-132.043l68.863,-132.043l135.737,-5.224l-66.875,137.267Zm-413.175,0c0,0 68.863,132.043 68.863,132.043c-0,0 68.862,-132.043 68.862,-132.043l-68.862,-132.043l-135.738,-5.224l66.875,137.267Z" style="fill:#fff;"/></svg>