<?xml version="1.0" encoding="UTF-8" standalone="no"?><!DOCTYPE svg PUBLIC "-//W3C//DTD SVG 1.1//EN" "http://www.w3.org/Graphics/SVG/1.1/DTD/svg11.dtd"><svg width="100%" height="100%" viewBox="0 0 732 93" version="1.1" xmlns="http://www.w3.org/2000/svg" xmlns:xlink="http://www.w3.org/1999/xlink" xml:space="preserve" xmlns:serif="http://www.serif.com/" style="fill-rule:evenodd;clip-rule:evenodd;stroke-linejoin:round;stroke-miterlimit:2;"><g><path d="M56.971,37.784c1.989,-2.941 4.646,-5.436 7.97,-7.486c4.967,-3.063 10.762,-4.595 17.384,-4.595c5.298,0 9.975,1.035 14.032,3.105c4.056,2.069 7.222,5.215 9.499,9.437c2.276,4.221 3.415,9.561 3.415,16.018l-0,37.872l-11.921,-0l0,-36.506c0,-6.374 -1.49,-11.176 -4.47,-14.404c-2.98,-3.229 -7.161,-4.843 -12.541,-4.843c-3.974,0 -7.451,0.828 -10.431,2.484c-2.98,1.655 -5.277,4.097 -6.891,7.326c-1.614,3.228 -2.422,7.243 -2.422,12.044l0,33.899l-11.92,-0l0,-36.506c0,-6.374 -1.469,-11.176 -4.408,-14.404c-2.939,-3.229 -7.14,-4.843 -12.603,-4.843c-3.891,0 -7.326,0.828 -10.307,2.484c-2.98,1.655 -5.298,4.097 -6.953,7.326c-1.656,3.228 -2.484,7.243 -2.484,12.044l0,33.899l-11.92,-0l-0,-65.811l11.424,0l-0,9.843c1.958,-2.805 4.525,-5.093 7.698,-6.863c4.305,-2.4 9.313,-3.601 15.025,-3.601c6.291,0 11.714,1.553 16.266,4.657c2.767,1.886 4.953,4.36 6.558,7.424Z" style="fill:#fff;fill-rule:nonzero;"/><path d="M131.249,59.292l-0,-32.968l11.92,0l0,32.595l-11.92,0.373Z" style="fill:#fff;fill-rule:nonzero;"/><path d="M177.316,36.269c2.045,-2.852 4.736,-5.173 8.071,-6.965c4.471,-2.4 9.686,-3.601 15.646,-3.601c5.381,0 10.12,1.035 14.217,3.105c4.098,2.069 7.306,5.215 9.624,9.437c2.318,4.221 3.477,9.561 3.477,16.018l-0,37.872l-11.921,-0l0,-36.506c0,-6.374 -1.552,-11.176 -4.656,-14.404c-3.105,-3.229 -7.471,-4.843 -13.1,-4.843c-4.222,0 -7.906,0.828 -11.052,2.484c-3.145,1.655 -5.567,4.097 -7.264,7.326c-1.697,3.228 -2.545,7.243 -2.545,12.044l-0,33.899l-11.92,-0l-0,-65.811l11.423,0l0,9.945Z" style="fill:#fff;fill-rule:nonzero;"/><rect x="250.453" y="26.324" width="11.92" height="32.967" style="fill:#fff;fill-rule:nonzero;"/><path d="M342.067,37.784c1.989,-2.941 4.646,-5.436 7.971,-7.486c4.967,-3.063 10.762,-4.595 17.384,-4.595c5.298,0 9.975,1.035 14.031,3.105c4.057,2.069 7.223,5.215 9.5,9.437c2.276,4.221 3.414,9.561 3.414,16.018l0,37.872l-11.92,-0l-0,-36.506c-0,-6.374 -1.49,-11.176 -4.47,-14.404c-2.98,-3.229 -7.161,-4.843 -12.542,-4.843c-3.973,0 -7.45,0.828 -10.43,2.484c-2.98,1.655 -5.277,4.097 -6.891,7.326c-1.615,3.228 -2.422,7.243 -2.422,12.044l0,33.899l-11.92,-0l-0,-36.506c-0,-6.374 -1.47,-11.176 -4.408,-14.404c-2.939,-3.229 -7.14,-4.843 -12.604,-4.843c-3.89,0 -7.326,0.828 -10.306,2.484c-2.98,1.655 -5.298,4.097 -6.953,7.326c-1.656,3.228 -2.484,7.243 -2.484,12.044l0,33.899l-11.92,-0l-0,-65.811l11.423,0l0,9.843c1.959,-2.805 4.525,-5.093 7.699,-6.863c4.305,-2.4 9.313,-3.601 15.025,-3.601c6.291,0 11.713,1.553 16.266,4.657c2.767,1.886 4.952,4.36 6.557,7.424Z" style="fill:#fff;fill-rule:nonzero;"/><path d="M457.198,92.135l-0,-13.907l-0.621,-2.608l-0,-23.717c-0,-5.049 -1.469,-8.961 -4.408,-11.734c-2.939,-2.773 -7.347,-4.159 -13.224,-4.159c-3.891,-0 -7.699,0.641 -11.424,1.924c-3.725,1.283 -6.871,3.001 -9.437,5.153l-4.967,-8.94c3.394,-2.732 7.471,-4.822 12.231,-6.271c4.76,-1.448 9.747,-2.173 14.962,-2.173c9.024,0 15.977,2.194 20.861,6.581c4.884,4.388 7.326,11.093 7.326,20.116l0,39.735l-11.299,-0Zm-21.606,0.745c-4.884,-0 -9.168,-0.828 -12.852,-2.483c-3.683,-1.656 -6.519,-3.953 -8.505,-6.892c-1.987,-2.939 -2.981,-6.271 -2.981,-9.996c0,-3.559 0.849,-6.788 2.546,-9.685c1.697,-2.897 4.47,-5.215 8.319,-6.954c3.85,-1.738 9.044,-2.607 15.584,-2.607l18.874,-0l-0,8.568l-18.377,-0c-5.961,-0 -9.975,0.993 -12.045,2.98c-2.07,1.986 -3.104,4.387 -3.104,7.202c-0,3.228 1.283,5.815 3.849,7.76c2.566,1.946 6.126,2.918 10.679,2.918c4.47,0 8.381,-0.993 11.734,-2.98c3.353,-1.987 5.774,-4.884 7.264,-8.692l2.359,8.195c-1.573,3.891 -4.346,6.975 -8.319,9.251c-3.974,2.277 -8.982,3.415 -15.025,3.415Z" style="fill:#fff;fill-rule:nonzero;"/><rect x="490.6" y="0" width="11.92" height="92.135" style="fill:#fff;fill-rule:nonzero;"/><rect x="525.243" y="26.324" width="11.92" height="32.967" style="fill:#fff;fill-rule:nonzero;"/><path d="M578.761,92.88c-5.463,-0 -10.658,-0.745 -15.583,-2.235c-4.926,-1.49 -8.796,-3.311 -11.61,-5.464l4.967,-9.437c2.814,1.904 6.291,3.519 10.43,4.843c4.139,1.324 8.361,1.987 12.665,1.987c5.547,-0 9.541,-0.787 11.983,-2.36c2.442,-1.572 3.663,-3.766 3.663,-6.581c-0,-2.069 -0.745,-3.683 -2.235,-4.842c-1.49,-1.159 -3.456,-2.028 -5.898,-2.608c-2.442,-0.579 -5.153,-1.097 -8.133,-1.552c-2.981,-0.455 -5.961,-1.035 -8.941,-1.738c-2.98,-0.704 -5.712,-1.697 -8.195,-2.98c-2.483,-1.284 -4.47,-3.063 -5.96,-5.34c-1.49,-2.276 -2.235,-5.318 -2.235,-9.126c-0,-3.974 1.117,-7.451 3.352,-10.431c2.235,-2.98 5.402,-5.277 9.499,-6.891c4.098,-1.614 8.961,-2.422 14.59,-2.422c4.305,0 8.672,0.518 13.1,1.553c4.429,1.034 8.051,2.504 10.865,4.408l-5.091,9.437c-2.98,-1.987 -6.084,-3.353 -9.312,-4.098c-3.229,-0.745 -6.457,-1.118 -9.686,-1.118c-5.215,0 -9.106,0.849 -11.672,2.546c-2.566,1.697 -3.849,3.87 -3.849,6.519c-0,2.235 0.766,3.953 2.297,5.153c1.532,1.2 3.518,2.132 5.96,2.794c2.442,0.662 5.153,1.221 8.133,1.676c2.981,0.455 5.961,1.035 8.941,1.739c2.98,0.703 5.691,1.676 8.133,2.918c2.442,1.241 4.429,2.98 5.96,5.215c1.532,2.235 2.297,5.215 2.297,8.94c0,3.974 -1.159,7.409 -3.476,10.306c-2.318,2.898 -5.588,5.153 -9.81,6.768c-4.222,1.614 -9.271,2.421 -15.149,2.421Z" style="fill:#fff;fill-rule:nonzero;"/><path d="M704.422,25.703c5.298,0 9.975,1.035 14.032,3.105c4.056,2.069 7.222,5.215 9.499,9.437c2.276,4.221 3.414,9.561 3.414,16.018l0,37.872l-11.92,-0l-0,-36.506c-0,-6.374 -1.49,-11.176 -4.47,-14.404c-2.98,-3.229 -7.161,-4.843 -12.541,-4.843c-3.974,0 -7.451,0.828 -10.431,2.484c-2.98,1.655 -5.277,4.097 -6.891,7.326c-1.615,3.228 -2.422,7.243 -2.422,12.044l0,33.899l-11.92,-0l-0,-36.506c-0,-6.374 -1.469,-11.176 -4.408,-14.404c-2.939,-3.229 -7.14,-4.843 -12.603,-4.843c-3.891,0 -7.327,0.828 -10.307,2.484c-2.98,1.655 -5.298,4.097 -6.953,7.326c-1.656,3.228 -2.484,7.243 -2.484,12.044l0,33.899l-11.92,-0l-0,-65.811l11.424,0l-0,17.508l-1.863,-4.47c2.07,-4.304 5.257,-7.657 9.561,-10.058c4.305,-2.4 9.313,-3.601 15.025,-3.601c6.291,0 11.713,1.553 16.266,4.657c4.553,3.104 7.533,7.802 8.941,14.093l-4.843,-1.987c1.987,-5.049 5.464,-9.105 10.43,-12.168c4.967,-3.063 10.762,-4.595 17.384,-4.595Z" style="fill:#fff;fill-rule:nonzero;"/></g></svg>