<?xml version="1.0" encoding="UTF-8" standalone="no"?><!DOCTYPE svg PUBLIC "-//W3C//DTD SVG 1.1//EN" "http://www.w3.org/Graphics/SVG/1.1/DTD/svg11.dtd"><svg width="100%" height="100%" viewBox="0 0 651 187" version="1.1" xmlns="http://www.w3.org/2000/svg" xmlns:xlink="http://www.w3.org/1999/xlink" xml:space="preserve" xmlns:serif="http://www.serif.com/" style="fill-rule:evenodd;clip-rule:evenodd;stroke-linejoin:round;stroke-miterlimit:2;"><g><path d="M0,182.759c336.382,0 650.072,3.73 650.072,3.73l-0,-186.489l-650.072,0l0,182.759Zm429.529,-140.809l89.332,0l0,25.647l-30.258,0l0,76.941l-28.816,0l-0,-76.941l-30.258,0l-0,-25.647Zm-18.299,47.548c5.283,1.921 9.534,5.187 12.752,9.798c3.218,4.611 4.826,9.605 4.826,14.985c0,9.605 -3.241,17.05 -9.725,22.333c-6.484,5.283 -16.114,7.924 -28.889,7.924l-52.014,0l-0,-102.588l51.005,0c12.488,0 21.517,2.498 27.088,7.493c5.571,4.995 8.357,11.19 8.357,18.587c0,10.182 -4.467,17.338 -13.4,21.468Zm116.276,-47.548l44.81,0c17.771,0 31.074,4.611 39.912,13.832c8.837,9.318 13.255,21.805 13.255,37.462c0,15.657 -4.418,28.145 -13.255,37.462c-8.838,9.222 -22.141,13.832 -39.912,13.832l-44.81,0l0,-102.588Zm-160.51,79.967l21.613,0c6.916,0 10.374,-3.122 10.374,-9.365c0,-6.244 -3.458,-9.366 -10.374,-9.366l-21.613,0l0,18.731Zm189.327,-1.585l15.417,0c15.849,0 23.774,-9.029 23.774,-27.088c-0,-18.058 -7.925,-27.087 -23.774,-27.087l-15.417,-0l-0,54.175Zm-169.155,-55.904l-20.172,-0l0,17.578l20.172,-0c3.65,0.288 6.22,-1.105 7.709,-4.179c1.489,-3.073 1.489,-6.147 -0,-9.221c-1.489,-3.074 -4.059,-4.467 -7.709,-4.178Z" style="fill:#fff;"/><rect x="0" y="0" width="280.617" height="93.244" style="fill:#c3c0c0;"/><rect x="0" y="93.244" width="280.617" height="90.278" style="fill:#7b7b7b;"/></g></svg>