<?xml version="1.0" encoding="UTF-8" standalone="no"?><!DOCTYPE svg PUBLIC "-//W3C//DTD SVG 1.1//EN" "http://www.w3.org/Graphics/SVG/1.1/DTD/svg11.dtd"><svg width="100%" height="100%" viewBox="0 0 601 147" version="1.1" xmlns="http://www.w3.org/2000/svg" xmlns:xlink="http://www.w3.org/1999/xlink" xml:space="preserve" xmlns:serif="http://www.serif.com/" style="fill-rule:evenodd;clip-rule:evenodd;stroke-linejoin:round;stroke-miterlimit:2;"><g><path d="M73.098,0c-39.784,0 -73.098,34.096 -73.098,73.098c-0,41.148 34.679,73.099 73.098,73.099c39.785,-0.974 73.099,-33.121 73.099,-73.099c-0,-39.782 -34.095,-73.098 -73.099,-73.098Zm0,120.486c-24.572,-1.56 -39.784,-24.376 -39.784,-47.388c0,-24.181 16.382,-47.387 39.784,-47.387c24.573,-0 39.785,25.351 39.785,47.387c-0,24.767 -17.162,47.388 -39.785,47.388Z" style="fill:#fff;fill-rule:nonzero;"/><path d="M269.412,144.832l-23.381,-57.698c11.104,-9.154 18.312,-22.606 18.312,-37.236c0,-26.135 -22.208,-47.948 -47.755,-47.948l-45.022,-0l0,142.882l31.949,-0l0,-46.986l12.488,0l18.925,46.986l34.484,-0Zm-65.897,-118.537l10.927,0c13.268,0 20.096,11.899 19.512,23.603c-0.585,13.459 -7.22,23.602 -19.512,23.602l-10.927,0l0,-47.205Z" style="fill:#fff;fill-rule:nonzero;"/><rect x="295.367" y="1.95" width="31.949" height="142.882" style="fill:#fff;fill-rule:nonzero;"/><path d="M357.559,1.95l0,142.882l48.139,-0c39.787,-0 71.348,-34.096 71.348,-71.344c0,-39.977 -32.925,-70.564 -71.348,-71.538l-48.139,-0Zm85.198,71.538c0,25.742 -12.678,46.998 -37.059,46.998l-16.19,0l0,-94.191l16.19,0c26.527,0 37.059,22.817 37.059,47.193Z" style="fill:#fff;fill-rule:nonzero;"/><path d="M565.955,144.832l34.307,-0l-58.087,-144.052l-58.281,144.052l26.314,-0l7.602,-18.911l40.349,-0l7.796,18.911Zm-38.204,-43.257l10.331,-25.735l10.331,25.735l-20.662,-0Z" style="fill:#fff;fill-rule:nonzero;"/></g></svg>