<?xml version="1.0" encoding="iso-8859-1"?>
<!-- Uploaded to: SVG Repo, www.svgrepo.com, Generator: SVG Repo Mixer Tools -->
<svg fill="#000000" height="800px" width="800px" version="1.1" id="Layer_1" xmlns="http://www.w3.org/2000/svg" xmlns:xlink="http://www.w3.org/1999/xlink" 
	 viewBox="0 0 491.519 491.519" xml:space="preserve">
<g>
	<g>
		<path d="M474.666,29.262H16.856C7.56,29.262,0,36.822,0,46.115v266.369h37.163V83.202c0-8.602,6.918-15.608,15.424-15.608h386.349
			c8.505,0,15.424,7.006,15.424,15.608v229.282h37.159V46.115C491.518,36.822,483.958,29.262,474.666,29.262z"/>
	</g>
</g>
<g>
	<g>
		<path d="M438.894,82.947L52.586,82.954l-0.06,229.53h386.473V83.202C438.999,83.007,438.894,82.947,438.894,82.947z"/>
	</g>
</g>
<g>
	<g>
		<path d="M446.679,327.844H44.843H0v41.73c0,9.292,7.56,16.852,16.856,16.852h125.978v60.472h-20.727
			c-4.241,0-7.68,3.435-7.68,7.68c0,4.246,3.439,7.68,7.68,7.68h247.304c4.241,0,7.68-3.434,7.68-7.68c0-4.245-3.439-7.68-7.68-7.68
			h-20.726v-60.472h125.981c9.292,0,16.852-7.56,16.852-16.852v-41.73H446.679z M254.327,357.131h-17.133
			c-4.242,0-7.68-3.435-7.68-7.68s3.438-7.68,7.68-7.68h17.133c4.242,0,7.68,3.435,7.68,7.68S258.569,357.131,254.327,357.131z"/>
	</g>
</g>
</svg>